<svg width="16" height="11" viewBox="0 0 16 11" fill="none" xmlns="http://www.w3.org/2000/svg">
<path fill-rule="evenodd" clip-rule="evenodd" d="M0.142598 0.265859C0.385538 -0.0217036 0.854448 -0.0860064 1.18994 0.122228L15.6899 9.12223C16.0254 9.33043 16.1005 9.73234 15.8575 10.0199C15.6146 10.3075 15.1457 10.3719 14.8102 10.1636L12.5615 8.76789C11.3457 9.59049 9.7922 10.2858 8.00006 10.2858C6.0187 10.2858 4.32923 9.43577 3.06667 8.505C1.79722 7.56926 0.8805 6.49455 0.42968 5.91322C0.0668461 5.44535 0.0657162 4.84197 0.429259 4.37313C0.783329 3.9165 1.4245 3.15593 2.2979 2.39734L0.310172 1.16358C-0.0253172 0.955345 -0.100343 0.553422 0.142598 0.265859ZM3.52875 3.16131C2.66555 3.88311 2.02476 4.63826 1.6785 5.0848C1.66294 5.10488 1.65707 5.12469 1.65708 5.14279C1.65709 5.16092 1.66303 5.18104 1.67888 5.20149C2.09147 5.73352 2.92065 6.70161 4.04474 7.53026C5.17571 8.36391 6.52743 9.00008 8.00006 9.00008C9.19465 9.00008 10.3095 8.58137 11.2907 7.97906L9.06202 6.59576C8.75428 6.76137 8.39019 6.85714 8 6.85714C6.89543 6.85714 6 6.08964 6 5.14286C6 5.00096 6.02011 4.86309 6.05803 4.73122L3.52875 3.16131ZM8.00006 1.28576C7.48367 1.28576 6.98343 1.36353 6.50129 1.50094C6.10823 1.61296 5.68365 1.43066 5.55296 1.09375C5.42227 0.756848 5.63496 0.392922 6.02802 0.280902C6.64531 0.104974 7.30538 4.22069e-05 8.00006 4.22069e-05C9.98141 4.22069e-05 11.6709 0.850045 12.9334 1.78077C14.2029 2.71656 15.1196 3.79125 15.5704 4.37258C15.9337 4.84096 15.9336 5.44491 15.5704 5.91325C15.4598 6.05589 15.3223 6.22669 15.1596 6.4168C14.9146 6.70308 14.4452 6.76491 14.1113 6.55491C13.7773 6.34491 13.7051 5.9426 13.9501 5.65633C14.0979 5.48371 14.2221 5.32928 14.3212 5.20151C14.35 5.16434 14.35 5.12144 14.3212 5.08432C13.9086 4.55228 13.0795 3.5842 11.9554 2.75556C10.8244 1.92185 9.47268 1.28576 8.00006 1.28576Z" fill="#2F2F2F"/>
</svg>
