<svg width="16" height="12" viewBox="0 0 16 12" fill="none" xmlns="http://www.w3.org/2000/svg">
<path fill-rule="evenodd" clip-rule="evenodd" d="M1.52161 5.93165C1.9342 5.31094 2.76337 4.18152 3.88747 3.21477C5.01844 2.2421 6.37015 1.5 7.84278 1.5C9.31541 1.5 10.6672 2.2421 11.7981 3.21477C12.9222 4.18152 13.7514 5.31094 14.164 5.93165C14.1928 5.975 14.1928 6.025 14.164 6.06835C13.7514 6.68906 12.9222 7.81848 11.7981 8.7852C10.6672 9.7579 9.31541 10.5 7.84278 10.5C6.37015 10.5 5.01844 9.7579 3.88747 8.7852C2.76337 7.81848 1.9342 6.68906 1.52161 6.06835C1.49279 6.025 1.49279 5.975 1.52161 5.93165ZM7.84278 0C5.86142 0 4.17196 0.99167 2.90939 2.07751C1.63995 3.16926 0.723227 4.42307 0.272408 5.10129C-0.0908035 5.64771 -0.0908021 6.35229 0.272408 6.89871C0.723228 7.57693 1.63995 8.8307 2.90939 9.9225C4.17196 11.0083 5.86142 12 7.84278 12C9.82414 12 11.5136 11.0083 12.7762 9.9225C14.0456 8.8307 14.9624 7.57693 15.4132 6.89871C15.7764 6.35229 15.7764 5.64771 15.4132 5.10129C14.9624 4.42307 14.0456 3.16926 12.7762 2.07751C11.5136 0.99167 9.82414 0 7.84278 0ZM7.84277 8C8.94734 8 9.84277 7.10457 9.84277 6C9.84277 4.89543 8.94734 4 7.84277 4C6.7382 4 5.84277 4.89543 5.84277 6C5.84277 7.10457 6.7382 8 7.84277 8Z" fill="#2F2F2F"/>
</svg>
